<svg width="576" height="524" viewBox="0 0 576 524" fill="none" xmlns="http://www.w3.org/2000/svg">
<g clip-path="url(#clip0_1_42)">
<path d="M472.202 415.05C472.192 416.3 472.162 417.54 472.112 418.79C454.25 442.594 432.522 463.234 407.832 479.85C404.982 481.78 402.096 483.64 399.172 485.43C377.291 498.918 353.519 509.067 328.643 515.54C327.332 515.88 326.022 516.21 324.712 516.53C323.772 516.76 322.822 516.99 321.872 517.19C321.292 517.14 320.722 517.09 320.152 517.04C320.122 517.03 320.082 517.03 320.052 517.02C319.822 517 319.592 516.98 319.372 516.97C318.392 516.88 317.412 516.78 316.433 516.69L316.662 517.13L317.242 518.23H317.232C317.022 517.87 316.812 517.5 316.612 517.13C316.532 517 316.442 516.86 316.372 516.72C316.302 516.6 316.232 516.47 316.162 516.35C307.242 500.83 298.452 484.74 296.202 467.03C293.852 448.49 300.452 427.51 316.762 418.4C318.902 417.213 321.165 416.264 323.512 415.57C324.492 415.28 325.482 415.04 326.482 414.82C332.599 413.463 338.967 413.759 344.931 415.678C350.896 417.598 356.241 421.071 360.418 425.741C364.595 430.411 367.453 436.109 368.698 442.25C369.943 448.39 369.531 454.752 367.502 460.68C381.332 446.5 378.752 423.5 373.982 404.28C369.202 385.05 363.422 363.66 373.142 346.4C378.542 336.78 388.042 330.82 398.712 328.42C399.032 328.35 399.362 328.28 399.692 328.22C412.398 325.645 425.608 327.959 436.682 334.7C457.072 347.55 467.542 371.91 470.942 395.77C471.849 402.156 472.27 408.601 472.202 415.05V415.05Z" fill="#F2F2F2"/>
<path d="M333.872 427.06C341.396 442.358 343.797 459.671 340.722 476.44C338.011 490.778 331.489 504.122 321.842 515.07C321.292 515.7 320.732 516.31 320.162 516.91C321.082 516.85 322.012 516.77 322.933 516.69C323.522 516.64 324.122 516.59 324.712 516.53C323.772 516.76 322.822 516.99 321.872 517.19C321.292 517.14 320.722 517.09 320.152 517.04C320.122 517.03 320.082 517.03 320.052 517.02C319.822 517 319.592 516.98 319.372 516.97C318.392 516.88 317.412 516.78 316.433 516.69L316.662 517.13L317.242 518.23H317.232C317.022 517.87 316.812 517.5 316.612 517.13C316.532 517 316.442 516.86 316.372 516.72C316.552 516.55 316.722 516.37 316.892 516.19C329.961 503.045 337.83 485.615 339.047 467.12C340.264 448.624 334.746 430.313 323.512 415.57C324.492 415.28 325.482 415.04 326.482 414.82C329.297 418.677 331.77 422.773 333.872 427.06V427.06Z" fill="white"/>
<path d="M423.872 438.15C423.071 446.624 421.036 454.935 417.833 462.82C416.093 466.972 413.97 470.952 411.492 474.71C410.353 476.47 409.123 478.19 407.833 479.85C404.982 481.78 402.096 483.64 399.172 485.43C401.054 483.54 402.833 481.55 404.502 479.47C405.433 478.35 406.312 477.2 407.162 476.03C416.672 462.92 420.862 447.14 421.583 431.11C422.342 413.94 420.112 396.47 416.192 379.78C412.197 362.662 406.118 346.099 398.092 330.46C397.913 330.106 397.878 329.696 397.993 329.316C398.109 328.936 398.366 328.615 398.712 328.42C399 328.228 399.352 328.156 399.692 328.22C399.86 328.262 400.014 328.343 400.145 328.456C400.275 328.569 400.377 328.711 400.442 328.87C401.433 330.8 402.412 332.73 403.342 334.69C411.128 350.97 416.859 368.155 420.402 385.85C423.842 402.92 425.683 420.77 423.872 438.15Z" fill="white"/>
<path d="M186.082 512.85C186.442 512.22 186.802 511.59 187.152 510.96C193.822 499.24 200.092 487.08 201.782 473.78C203.672 458.86 198.362 441.97 185.232 434.64C183.51 433.679 181.685 432.915 179.792 432.36C179.012 432.13 178.212 431.93 177.402 431.75C172.478 430.659 167.353 430.899 162.552 432.445C157.752 433.991 153.449 436.787 150.087 440.546C146.725 444.305 144.424 448.892 143.422 453.835C142.419 458.777 142.751 463.898 144.382 468.67C133.252 457.26 135.332 438.74 139.172 423.27C143.012 407.79 147.672 390.57 139.842 376.68C135.492 368.93 127.852 364.13 119.262 362.2C119.002 362.15 118.732 362.09 118.472 362.04C108.242 359.97 97.6082 361.834 88.6923 367.26C72.2823 377.6 63.8522 397.21 61.1122 416.42C60.6822 419.45 60.3822 422.52 60.2322 425.6C60.1722 426.68 60.1322 427.75 60.1122 428.83C65.3822 435.2 70.9756 441.343 76.8922 447.26C85.4334 455.804 94.5443 463.759 104.162 471.07C105.482 472.07 106.802 473.05 108.142 474.02C129.951 489.953 154.116 502.38 179.762 510.85C181.172 511.31 182.602 511.77 184.022 512.21L186.082 512.85Z" fill="#F2F2F2"/>
<path d="M184.022 512.21C182.602 511.77 181.172 511.31 179.762 510.85C178.942 509.86 178.162 508.85 177.412 507.81C171.672 499.954 167.754 490.919 165.942 481.36C163.467 467.862 165.398 453.926 171.452 441.61C173.147 438.158 175.138 434.859 177.402 431.75C178.212 431.93 179.012 432.13 179.792 432.36C171.347 443.451 166.901 457.072 167.177 471.01C167.453 484.947 172.435 498.382 181.312 509.13C182.183 510.19 183.082 511.21 184.022 512.21Z" fill="white"/>
<path d="M105.192 403.55C101.868 417.061 100.407 430.963 100.852 444.87C101.137 453.472 102.952 461.955 106.212 469.92C106.802 471.31 107.442 472.67 108.143 474.02C106.802 473.05 105.482 472.07 104.162 471.07C104.062 470.84 103.962 470.62 103.872 470.39C103.433 469.33 103.023 468.26 102.642 467.18C100.772 461.798 99.5501 456.212 99.0023 450.54C97.5522 436.54 99.0321 422.18 101.802 408.43C104.651 394.186 109.263 380.353 115.532 367.25C116.282 365.67 117.072 364.12 117.872 362.57C117.924 362.441 118.005 362.325 118.109 362.233C118.213 362.141 118.338 362.075 118.472 362.04C118.746 361.993 119.028 362.05 119.262 362.2C119.541 362.359 119.748 362.618 119.841 362.925C119.934 363.232 119.906 363.563 119.762 363.85C113.298 376.437 108.404 389.77 105.192 403.55V403.55Z" fill="white"/>
<path d="M177.668 399.874C176.489 400.309 175.214 400.42 173.977 400.193C172.74 399.966 171.587 399.411 170.639 398.585L159.516 388.884C158.119 387.663 157.263 385.937 157.136 384.086C157.01 382.234 157.623 380.408 158.841 379.008L239.696 286.299C240.917 284.901 242.643 284.046 244.494 283.919C246.346 283.792 248.172 284.406 249.572 285.624L260.695 295.325C262.093 296.547 262.948 298.272 263.075 300.124C263.201 301.975 262.588 303.801 261.37 305.201L180.516 397.911C179.747 398.794 178.768 399.469 177.668 399.874V399.874Z" fill="#33FF00"/>
<path d="M288.795 297.858C288.067 297.857 287.344 297.743 286.651 297.521C285.774 297.244 284.961 296.795 284.259 296.202C283.556 295.609 282.979 294.882 282.559 294.064L275.796 280.945C274.947 279.295 274.788 277.375 275.353 275.608C275.918 273.84 277.161 272.368 278.81 271.516L388.147 215.145C389.797 214.296 391.717 214.137 393.485 214.702C395.253 215.267 396.724 216.51 397.576 218.159L404.34 231.277C405.189 232.927 405.348 234.847 404.783 236.615C404.218 238.383 402.974 239.854 401.326 240.706L291.989 297.078C291.002 297.589 289.906 297.857 288.795 297.858V297.858Z" fill="#33FF00"/>
<path d="M286.823 301.031C285.523 301.031 284.247 300.669 283.14 299.986C282.033 299.304 281.137 298.327 280.553 297.165L273.931 283.975C273.183 282.487 272.991 280.781 273.389 279.165C273.433 278.986 273.484 278.808 273.542 278.63C273.676 278.228 273.822 277.599 273.99 276.872C274.526 274.551 275.194 271.664 276.555 270.98L324.598 241.861C326.251 241.018 328.171 240.867 329.936 241.44C331.701 242.013 333.166 243.264 334.009 244.917L334.029 244.957L346.148 269.936C346.977 271.595 347.114 273.515 346.529 275.276C345.945 277.036 344.686 278.493 343.029 279.327L289.909 300.299C288.951 300.781 287.895 301.031 286.823 301.031V301.031Z" fill="#105000"/>
<path d="M266.88 236.292C296.438 236.292 320.399 212.33 320.399 182.772C320.399 153.215 296.438 129.253 266.88 129.253C237.322 129.253 213.361 153.215 213.361 182.772C213.361 212.33 237.322 236.292 266.88 236.292Z" fill="#33FF00"/>
<path d="M256.447 522.618H241.688C239.832 522.616 238.053 521.878 236.741 520.566C235.428 519.253 234.69 517.474 234.688 515.618V390.604C234.69 388.749 235.428 386.969 236.741 385.657C238.053 384.345 239.832 383.607 241.688 383.604H256.447C258.303 383.607 260.082 384.345 261.395 385.657C262.707 386.969 263.445 388.749 263.447 390.604V515.618C263.445 517.474 262.707 519.253 261.395 520.566C260.082 521.878 258.303 522.616 256.447 522.618Z" fill="#33FF00"/>
<path d="M320.04 464.434C318.925 464.436 317.826 464.172 316.834 463.663C315.842 463.154 314.985 462.415 314.337 461.508L242.788 361.442C241.71 359.931 241.276 358.054 241.58 356.224C241.884 354.393 242.903 352.757 244.411 351.676L256.418 343.092C257.928 342.014 259.805 341.579 261.636 341.883C263.467 342.188 265.102 343.206 266.183 344.714L337.732 444.78C338.809 446.291 339.244 448.168 338.939 449.999C338.635 451.83 337.617 453.465 336.109 454.546L324.102 463.131C322.918 463.98 321.497 464.435 320.04 464.434V464.434Z" fill="#33FF00"/>
<path d="M301.059 520.76C299.587 520.735 298.141 520.373 296.831 519.703L283.619 513.124C280.163 511.404 278.26 508.182 279.375 505.943L313.428 437.543C314.543 435.304 318.26 434.881 321.716 436.601L334.929 443.179C336.469 443.91 337.779 445.048 338.716 446.472C339.123 447.025 339.38 447.674 339.46 448.356C339.54 449.038 339.441 449.729 339.173 450.361L305.12 518.76C304.467 520.072 302.921 520.76 301.059 520.76Z" fill="#33FF00"/>
<path d="M236.825 339.279C235.578 339.735 234.227 339.828 232.93 339.547C231.632 339.267 230.441 338.624 229.494 337.693L209.47 318.481C208.815 317.836 208.293 317.069 207.934 316.222C207.576 315.376 207.387 314.467 207.38 313.548C207.372 312.629 207.546 311.717 207.891 310.865C208.236 310.013 208.745 309.238 209.39 308.582L209.395 308.577L251.953 271.783C252.992 270.724 255.946 270.98 258.318 271.183C259.063 271.247 259.706 271.303 260.131 271.299C260.317 271.298 260.503 271.305 260.686 271.318C262.347 271.437 263.911 272.145 265.096 273.315L275.605 283.677C276.925 284.981 277.674 286.756 277.687 288.612C277.7 290.468 276.977 292.253 275.676 293.577L239.423 337.591C238.692 338.339 237.805 338.916 236.825 339.279Z" fill="#105000"/>
<path d="M259.756 202.608L259.7 200.608C263.421 200.505 266.701 200.271 269.166 198.471C269.865 197.931 270.439 197.247 270.85 196.466C271.261 195.685 271.499 194.824 271.547 193.942C271.591 193.404 271.509 192.862 271.309 192.36C271.109 191.858 270.796 191.409 270.394 191.048C268.758 189.666 266.125 190.113 264.206 190.993L262.552 191.752L265.725 168.562L267.706 168.833L265.007 188.56C267.615 187.793 270.031 188.123 271.685 189.521C272.321 190.075 272.819 190.769 273.142 191.549C273.465 192.328 273.603 193.171 273.546 194.013C273.487 195.197 273.171 196.354 272.618 197.404C272.065 198.453 271.289 199.368 270.346 200.086C267.179 202.4 263.063 202.516 259.756 202.608Z" fill="#2F2E41"/>
<path d="M288.277 170.534H277.506V172.534H288.277V170.534Z" fill="#2F2E41"/>
<path d="M254.277 170.534H243.506V172.534H254.277V170.534Z" fill="#2F2E41"/>
<path d="M350.657 405.637H184.175C183.033 405.641 181.909 405.344 180.919 404.774C179.928 404.205 179.105 403.384 178.534 402.394C177.963 401.405 177.663 400.282 177.665 399.139C177.667 397.996 177.971 396.875 178.546 395.887L261.787 251.71C262.352 250.718 263.171 249.893 264.161 249.322C265.15 248.751 266.274 248.454 267.416 248.46C268.558 248.454 269.682 248.751 270.671 249.322C271.661 249.893 272.48 250.718 273.045 251.71L356.286 395.887C356.856 396.875 357.157 397.996 357.157 399.137C357.157 400.278 356.856 401.399 356.286 402.387C355.715 403.375 354.895 404.196 353.907 404.766C352.918 405.337 351.798 405.637 350.657 405.637V405.637Z" fill="#105000"/>
<path d="M270.924 128.595C264.99 104.805 241.985 86.5395 217.335 86.9939C205.132 87.3363 193.364 91.6033 183.777 99.162C178.945 102.923 174.784 107.476 171.471 112.627C167.756 118.425 165.424 124.97 163.602 131.576C159.922 144.923 158.188 160.027 148.849 170.928C144.977 175.34 140.203 178.87 134.849 181.279C129.495 183.687 123.687 184.918 117.816 184.889C111.902 184.797 106.089 183.337 100.833 180.623C95.5767 177.909 91.0204 174.015 87.5208 169.246C80.4915 159.874 77.0308 146.913 81.0918 135.602C83.0846 130.052 87.3696 124.809 93.4982 123.884C96.2931 123.505 99.1377 123.953 101.682 125.17C104.226 126.388 106.358 128.323 107.816 130.737C110.573 135.573 109.691 142.026 106.238 146.292C102.601 150.785 96.5236 152.029 91.1631 150.224C88.6436 149.367 86.4281 147.795 84.7874 145.7C83.5887 144.186 81.464 146.309 82.6504 147.807C84.5517 150.087 87.0066 151.841 89.7799 152.9C92.5533 153.96 95.5522 154.29 98.4895 153.858C101.421 153.415 104.174 152.175 106.449 150.274C108.723 148.373 110.433 145.884 111.39 143.079C112.439 140.297 112.715 137.283 112.186 134.357C111.658 131.431 110.347 128.703 108.391 126.464C106.353 124.248 103.781 122.592 100.92 121.655C98.059 120.717 95.0054 120.53 92.0515 121.111C85.7234 122.451 81.1278 127.655 78.7428 133.422C76.3927 139.414 75.7727 145.945 76.9534 152.272C78.0429 158.377 80.4061 164.184 83.8889 169.315C87.3718 174.446 91.8964 178.786 97.1679 182.053C107.837 188.603 121.153 189.505 132.857 185.297C138.705 183.228 144.046 179.939 148.525 175.649C153.339 170.765 157.023 164.885 159.318 158.423C164.595 144.607 165.368 129.147 172.834 116.16C179.347 105.132 189.619 96.8252 201.765 92.764C213.84 88.5922 227.057 89.2266 238.677 94.5358C250.23 99.8868 259.537 109.127 264.97 120.642C266.264 123.448 267.287 126.371 268.027 129.371C268.495 131.248 271.392 130.469 270.924 128.594L270.924 128.595Z" fill="#2F2E41"/>
<path d="M279.152 262.5H257.152C255.429 262.498 253.777 261.813 252.558 260.594C251.34 259.375 250.654 257.723 250.652 256V254C250.654 252.277 251.34 250.625 252.558 249.406C253.777 248.187 255.429 247.502 257.152 247.5H279.152C280.876 247.502 282.528 248.187 283.746 249.406C284.965 250.625 285.65 252.277 285.652 254V256C285.65 257.723 284.965 259.375 283.746 260.594C282.528 261.813 280.876 262.498 279.152 262.5V262.5Z" fill="#105000"/>
<path d="M163.152 418C166.466 418 169.152 415.314 169.152 412C169.152 408.686 166.466 406 163.152 406C159.839 406 157.152 408.686 157.152 412C157.152 415.314 159.839 418 163.152 418Z" fill="#E6E6E6"/>
<path d="M453.152 322C456.466 322 459.152 319.314 459.152 316C459.152 312.686 456.466 310 453.152 310C449.839 310 447.152 312.686 447.152 316C447.152 319.314 449.839 322 453.152 322Z" fill="#F2F2F2"/>
<path d="M77.1523 348C80.466 348 83.1523 345.314 83.1523 342C83.1523 338.686 80.466 336 77.1523 336C73.8386 336 71.1523 338.686 71.1523 342C71.1523 345.314 73.8386 348 77.1523 348Z" fill="#F2F2F2"/>
<path d="M524.152 262C524.335 318.535 506.064 373.585 472.112 418.79C454.25 442.594 432.522 463.234 407.832 479.85C404.982 481.78 402.096 483.64 399.172 485.43C377.291 498.918 353.519 509.067 328.643 515.54C327.332 515.88 326.022 516.21 324.712 516.53C323.772 516.76 322.822 516.99 321.873 517.19C320.333 517.56 318.792 517.9 317.242 518.23H317.232C299.126 522.08 280.664 524.014 262.152 524C259.752 524 257.356 523.967 254.962 523.9C249.792 523.77 244.649 523.483 239.532 523.04C221.41 521.51 203.496 518.095 186.082 512.85C185.392 512.64 184.712 512.43 184.022 512.21C182.602 511.77 181.172 511.31 179.762 510.85C154.116 502.38 129.951 489.953 108.142 474.02C106.802 473.05 105.482 472.07 104.162 471.07C94.5443 463.759 85.4335 455.804 76.8925 447.26C70.972 441.34 65.3786 435.197 60.1122 428.83C40.4587 405.177 25.1673 378.217 14.952 349.21C-33.1326 212.65 38.591 62.9653 175.151 14.8806C203.102 5.03882 232.519 0.00731358 262.152 6.10352e-05C301.702 6.10352e-05 342.662 10.0601 380.602 29.1101L379.702 30.8901C342.042 11.9901 301.392 2.00006 262.152 2.00006C118.792 2.00006 2.15224 118.64 2.15224 262C2.09469 321.595 22.6101 379.382 60.2323 425.6C72.7464 441.024 86.9746 454.973 102.642 467.18C103.822 468.1 105.012 469.013 106.212 469.92C127.825 486.185 151.849 498.969 177.412 507.81C178.702 508.26 180.002 508.7 181.312 509.13C183.242 509.76 185.192 510.38 187.152 510.96C204.641 516.244 222.642 519.654 240.852 521.13C245.972 521.55 251.129 521.817 256.322 521.93C258.262 521.98 260.202 522 262.152 522C280.304 522.013 298.406 520.119 316.162 516.35C316.402 516.3 316.652 516.25 316.892 516.19C318.552 515.84 320.202 515.467 321.842 515.07C323.762 514.63 325.662 514.15 327.562 513.66C354.905 506.543 380.896 494.994 404.502 479.47C406.862 477.93 409.192 476.343 411.492 474.71C461.885 439.371 498.102 387.297 513.696 327.757C529.291 268.217 523.251 205.074 496.652 149.57L498.462 148.71C515.471 184.049 524.254 222.781 524.152 262V262Z" fill="#E6E6E6"/>
<path d="M519.012 151.22C493.802 151.22 470.82 145.1 450.705 133.029C429.431 120.268 385.559 127.654 382.268 134.166L378.234 143.881L389.604 31.3921L390.032 30.9936C390.967 30.0981 413.753 9.27489 473.453 38.561C518.765 60.7832 555.805 50.31 569.627 44.7759C570.334 44.4906 571.101 44.3896 571.858 44.4824C572.615 44.5751 573.336 44.8585 573.953 45.3061C574.57 45.7537 575.063 46.3507 575.387 47.0411C575.71 47.7315 575.852 48.4928 575.801 49.2534L569.551 139.895C569.494 140.792 569.167 141.652 568.612 142.361C568.058 143.07 567.303 143.594 566.445 143.866C551.093 148.684 535.103 151.163 519.012 151.22Z" fill="#33FF00"/>
<path d="M385.083 27.7036C383.251 27.7057 381.495 28.4344 380.199 29.7299C378.904 31.0253 378.175 32.7817 378.173 34.6138V267.407C378.173 269.239 378.901 270.997 380.197 272.293C381.493 273.589 383.25 274.317 385.083 274.317C386.916 274.317 388.673 273.589 389.969 272.293C391.265 270.997 391.993 269.239 391.993 267.407V34.6138C391.991 32.7817 391.262 31.0253 389.967 29.7299C388.671 28.4344 386.915 27.7057 385.083 27.7036Z" fill="#105000"/>
</g>
<defs>
<clipPath id="clip0_1_42">
<rect width="575.811" height="524" fill="white"/>
</clipPath>
</defs>
</svg>
